<svg width="42" height="42" viewBox="0 0 42 42" fill="none" xmlns="http://www.w3.org/2000/svg">
<path d="M11.2305 3.79175H12.3971V6.12508H11.2305V3.79175Z" fill="#E76F51"/>
<path d="M7.14453 7.29175H9.47787V8.45842H7.14453V7.29175Z" fill="#E76F51"/>
<path d="M13.8555 7.29175H16.1888V8.45842H13.8555V7.29175Z" fill="#E76F51"/>
<path d="M32.9583 30.3333H9.04167C7.91583 30.3333 7 29.4175 7 28.2916V13.7083C7 12.5825 7.91583 11.6666 9.04167 11.6666H14.2917V13.4166H9.04167C8.88067 13.4166 8.75 13.5473 8.75 13.7083V28.2916C8.75 28.4526 8.88067 28.5833 9.04167 28.5833H32.9583C33.1193 28.5833 33.25 28.4526 33.25 28.2916V13.7083C33.25 13.5473 33.1193 13.4166 32.9583 13.4166H27.7083V11.6666H32.9583C34.0842 11.6666 35 12.5825 35 13.7083V28.2916C35 29.4175 34.0842 30.3333 32.9583 30.3333Z" fill="#E76F51"/>
<path d="M20.125 29.4584H21.875V34.125H20.125V29.4584Z" fill="#E76F51"/>
<path d="M15.168 33.25H26.8346V35H15.168V33.25Z" fill="#E76F51"/>
<path d="M25.9596 22.1668H16.043C15.56 22.1668 15.168 21.7748 15.168 21.2918V20.2173C15.168 19.3598 15.5016 18.5548 16.1083 17.9481L17.5013 16.554V13.4891C17.5013 12.1195 17.9143 10.7988 18.6925 9.67062L20.2815 7.37696C20.607 6.90446 21.3933 6.90446 21.7188 7.37696L23.3066 9.67062C24.0883 10.7988 24.5013 12.1195 24.5013 13.4891V16.554L25.8943 17.947C26.501 18.5536 26.8346 19.3586 26.8346 20.2161V21.2906C26.8346 21.7748 26.4426 22.1668 25.9596 22.1668Z" fill="#E76F51"/>
<path d="M22.75 21.2916H24.5V23.625H22.75V21.2916Z" fill="#E76F51"/>
<path d="M17.5 21.2916H19.25V23.625H17.5V21.2916Z" fill="#E76F51"/>
<path d="M2.33203 33.25H39.6654V35H2.33203V33.25Z" fill="#E76F51"/>
</svg>
