<svg width="88" height="88" viewBox="0 0 88 88" fill="none" xmlns="http://www.w3.org/2000/svg">
<ellipse cx="43.9818" cy="43.8247" rx="43.9818" ry="43.8247" fill="#01966B" fill-opacity="0.1"/>
<g clip-path="url(#clip0_34_1984)">
<path d="M25.7923 25.7917C26.3216 25.7917 26.7507 25.3626 26.7507 24.8333C26.7507 24.3041 26.3216 23.875 25.7923 23.875C25.263 23.875 24.834 24.3041 24.834 24.8333C24.834 25.3626 25.263 25.7917 25.7923 25.7917Z" fill="#01966B"/>
<path d="M29.6243 25.7917C30.1536 25.7917 30.5827 25.3626 30.5827 24.8333C30.5827 24.3041 30.1536 23.875 29.6243 23.875C29.0951 23.875 28.666 24.3041 28.666 24.8333C28.666 25.3626 29.0951 25.7917 29.6243 25.7917Z" fill="#01966B"/>
<path d="M33.4583 25.7917C33.9876 25.7917 34.4167 25.3626 34.4167 24.8333C34.4167 24.3041 33.9876 23.875 33.4583 23.875C32.9291 23.875 32.5 24.3041 32.5 24.8333C32.5 25.3626 32.9291 25.7917 33.4583 25.7917Z" fill="#01966B"/>
<path d="M66.0417 54.5417H64.5275C64.5075 54.5051 64.4914 54.4666 64.4796 54.4267L65.5529 53.3533C65.6417 53.2638 65.712 53.1576 65.7597 53.0408C65.8074 52.9241 65.8316 52.799 65.8308 52.6729C65.8273 52.4192 65.728 52.1761 65.5529 51.9925L63.1667 49.6158V24.8333C63.1667 23.8167 62.7628 22.8416 62.0439 22.1228C61.325 21.4039 60.35 21 59.3333 21H24.8333C23.8167 21 22.8416 21.4039 22.1228 22.1228C21.4039 22.8416 21 23.8167 21 24.8333V58.375C21 58.6292 21.101 58.8729 21.2807 59.0526C21.4604 59.2324 21.7042 59.3333 21.9583 59.3333H47.8333C47.8333 59.5875 47.9343 59.8313 48.114 60.011C48.2937 60.1907 48.5375 60.2917 48.7917 60.2917H50.3058C50.3259 60.3282 50.3419 60.3667 50.3537 60.4067L49.2804 61.48C49.1916 61.5695 49.1213 61.6757 49.0736 61.7925C49.0259 61.9093 49.0018 62.0343 49.0025 62.1604C49.006 62.4142 49.1053 62.6572 49.2804 62.8408L51.9925 65.5529C52.0816 65.6427 52.1876 65.714 52.3044 65.7627C52.4211 65.8113 52.5464 65.8364 52.6729 65.8364C52.7994 65.8364 52.9247 65.8113 53.0415 65.7627C53.1583 65.714 53.2642 65.6427 53.3533 65.5529L54.4267 64.4796L54.5417 64.5275V66.0417C54.5417 66.2958 54.6426 66.5396 54.8224 66.7193C55.0021 66.899 55.2458 67 55.5 67H59.3333C59.5875 67 59.8313 66.899 60.011 66.7193C60.1907 66.5396 60.2917 66.2958 60.2917 66.0417V64.5275L60.4067 64.4796L61.48 65.5529C61.5695 65.6417 61.6757 65.712 61.7925 65.7597C61.9093 65.8074 62.0343 65.8316 62.1604 65.8308C62.4142 65.8273 62.6572 65.728 62.8408 65.5529L65.5529 62.8408C65.728 62.6572 65.8273 62.4142 65.8308 62.1604C65.8316 62.0343 65.8074 61.9093 65.7597 61.7925C65.712 61.6757 65.6417 61.5695 65.5529 61.48L64.4796 60.4067C64.4914 60.3667 64.5075 60.3282 64.5275 60.2917H66.0417C66.2958 60.2917 66.5396 60.1907 66.7193 60.011C66.899 59.8313 67 59.5875 67 59.3333V55.5C67 55.2458 66.899 55.0021 66.7193 54.8224C66.5396 54.6426 66.2958 54.5417 66.0417 54.5417ZM22.9167 24.8333C22.9167 24.325 23.1186 23.8375 23.478 23.478C23.8375 23.1186 24.325 22.9167 24.8333 22.9167H59.3333C59.8417 22.9167 60.3292 23.1186 60.6886 23.478C61.0481 23.8375 61.25 24.325 61.25 24.8333V26.75H22.9167V24.8333ZM22.9167 57.4167V28.6667H61.25V49.52L60.4067 50.3537L60.2917 50.3058V48.7917C60.2917 48.5375 60.1907 48.2937 60.011 48.114C59.8313 47.9343 59.5875 47.8333 59.3333 47.8333H55.5C55.2458 47.8333 55.0021 47.9343 54.8224 48.114C54.6426 48.2937 54.5417 48.5375 54.5417 48.7917V50.3058L54.4267 50.3537L53.3533 49.2804C53.2638 49.1916 53.1576 49.1213 53.0408 49.0736C52.9241 49.0259 52.799 49.0018 52.6729 49.0025C52.4192 49.006 52.1761 49.1053 51.9925 49.2804L49.2804 51.9925C49.1053 52.1761 49.006 52.4192 49.0025 52.6729C49.0018 52.799 49.0259 52.9241 49.0736 53.0408C49.1213 53.1576 49.1916 53.2638 49.2804 53.3533L50.3537 54.4267C50.3419 54.4666 50.3259 54.5051 50.3058 54.5417H48.7917C48.5375 54.5417 48.2937 54.6426 48.114 54.8224C47.9343 55.0021 47.8333 55.2458 47.8333 55.5V57.4167H22.9167ZM65.0833 58.375H63.8471C63.6345 58.3659 63.4249 58.4279 63.2514 58.551C63.0778 58.6742 62.9503 58.8517 62.8887 59.0554C62.7779 59.4346 62.6269 59.8008 62.4383 60.1479C62.352 60.3295 62.325 60.5336 62.3611 60.7314C62.3973 60.9292 62.4947 61.1106 62.6396 61.25L63.5117 62.1221L62.2083 63.5117L61.25 62.6396C61.1033 62.4925 60.9127 62.397 60.707 62.3676C60.5013 62.3383 60.2916 62.3765 60.1096 62.4767C59.7625 62.6652 59.3962 62.8162 59.0171 62.9271C58.8134 62.9886 58.6359 63.1162 58.5127 63.2897C58.3895 63.4632 58.3276 63.6728 58.3367 63.8854V65.0833H56.4583V63.8471C56.4674 63.6345 56.4055 63.4249 56.2823 63.2514C56.1591 63.0778 55.9816 62.9503 55.7779 62.8887C55.3988 62.7779 55.0325 62.6269 54.6854 62.4383C54.5034 62.3382 54.2937 62.2999 54.088 62.3293C53.8823 62.3587 53.6917 62.4541 53.545 62.6012L52.6729 63.4733L51.3217 62.2083L52.1937 61.3362C52.3409 61.1895 52.4363 60.9989 52.4657 60.7933C52.4951 60.5876 52.4568 60.3779 52.3567 60.1958C52.1681 59.8487 52.0171 59.4825 51.9062 59.1033C51.8447 58.8996 51.7172 58.7222 51.5436 58.599C51.3701 58.4758 51.1605 58.4138 50.9479 58.4229H49.75V56.4583H50.9863C51.1989 56.4674 51.4084 56.4055 51.582 56.2823C51.7555 56.1591 51.8831 55.9816 51.9446 55.7779C52.0555 55.3988 52.2065 55.0325 52.395 54.6854C52.4813 54.5038 52.5083 54.2997 52.4722 54.1019C52.4361 53.9041 52.3387 53.7227 52.1937 53.5833L51.3217 52.7112L52.6729 51.36L53.545 52.2321C53.6917 52.3792 53.8823 52.4746 54.088 52.504C54.2937 52.5334 54.5034 52.4951 54.6854 52.395C55.0325 52.2065 55.3988 52.0555 55.7779 51.9446C55.9816 51.8831 56.1591 51.7555 56.2823 51.582C56.4055 51.4084 56.4674 51.1989 56.4583 50.9863V49.75H58.375V50.9863C58.3659 51.1989 58.4279 51.4084 58.551 51.582C58.6742 51.7555 58.8517 51.8831 59.0554 51.9446C59.4346 52.0555 59.8008 52.2065 60.1479 52.395C60.3295 52.4813 60.5336 52.5083 60.7314 52.4722C60.9292 52.4361 61.1106 52.3387 61.25 52.1937L62.1221 51.3217L63.4733 52.6729L62.6012 53.545C62.4541 53.6917 62.3587 53.8823 62.3293 54.088C62.2999 54.2937 62.3382 54.5034 62.4383 54.6854C62.6269 55.0325 62.7779 55.3988 62.8887 55.7779C62.9503 55.9816 63.0778 56.1591 63.2514 56.2823C63.4249 56.4055 63.6345 56.4674 63.8471 56.4583H65.0833V58.375Z" fill="#01966B"/>
<path d="M57.4164 53.5833C56.6582 53.5833 55.9171 53.8081 55.2867 54.2294C54.6563 54.6506 54.165 55.2493 53.8748 55.9497C53.5847 56.6502 53.5088 57.4209 53.6567 58.1645C53.8046 58.9081 54.1697 59.5911 54.7058 60.1272C55.2419 60.6633 55.9249 61.0284 56.6685 61.1763C57.4121 61.3242 58.1829 61.2483 58.8833 60.9582C59.5838 60.6681 60.1825 60.1767 60.6037 59.5463C61.0249 58.916 61.2497 58.1748 61.2497 57.4167C61.2497 56.4 60.8458 55.425 60.1269 54.7061C59.4081 53.9872 58.433 53.5833 57.4164 53.5833ZM57.4164 59.3333C57.0373 59.3333 56.6667 59.2209 56.3515 59.0103C56.0363 58.7997 55.7907 58.5004 55.6456 58.1501C55.5005 57.7999 55.4626 57.4145 55.5365 57.0427C55.6105 56.6709 55.793 56.3294 56.0611 56.0614C56.3291 55.7933 56.6706 55.6108 57.0424 55.5368C57.4142 55.4629 57.7996 55.5008 58.1498 55.6459C58.5001 55.791 58.7994 56.0366 59.01 56.3518C59.2206 56.667 59.333 57.0376 59.333 57.4167C59.333 57.925 59.1311 58.4125 58.7717 58.772C58.4122 59.1314 57.9247 59.3333 57.4164 59.3333ZM37.9718 38.5279C37.8827 38.4381 37.7767 38.3668 37.6599 38.3181C37.5431 38.2695 37.4179 38.2444 37.2914 38.2444C37.1649 38.2444 37.0396 38.2695 36.9228 38.3181C36.806 38.3668 36.7 38.4381 36.6109 38.5279L32.7776 42.3612C32.6878 42.4503 32.6165 42.5563 32.5678 42.6731C32.5192 42.7899 32.4941 42.9152 32.4941 43.0417C32.4941 43.1682 32.5192 43.2934 32.5678 43.4102C32.6165 43.527 32.6878 43.633 32.7776 43.7221L36.6109 47.5554C36.7 47.6452 36.806 47.7165 36.9228 47.7652C37.0396 47.8138 37.1649 47.8389 37.2914 47.8389C37.4179 47.8389 37.5431 47.8138 37.6599 47.7652C37.7767 47.7165 37.8827 47.6452 37.9718 47.5554C38.0616 47.4663 38.1329 47.3603 38.1816 47.2435C38.2302 47.1268 38.2553 47.0015 38.2553 46.875C38.2553 46.7485 38.2302 46.6232 38.1816 46.5064C38.1329 46.3897 38.0616 46.2837 37.9718 46.1946L34.8093 43.0417L37.9718 39.8887C38.0616 39.7997 38.1329 39.6937 38.1816 39.5769C38.2302 39.4601 38.2553 39.3348 38.2553 39.2083C38.2553 39.0818 38.2302 38.9566 38.1816 38.8398C38.1329 38.723 38.0616 38.617 37.9718 38.5279V38.5279ZM51.3884 42.3612L47.5551 38.5279C47.3747 38.3475 47.1299 38.2461 46.8747 38.2461C46.6195 38.2461 46.3747 38.3475 46.1943 38.5279C46.0138 38.7084 45.9124 38.9531 45.9124 39.2083C45.9124 39.4635 46.0138 39.7083 46.1943 39.8887L49.3568 43.0417L46.1943 46.1946C46.1045 46.2837 46.0332 46.3897 45.9845 46.5064C45.9359 46.6232 45.9108 46.7485 45.9108 46.875C45.9108 47.0015 45.9359 47.1268 45.9845 47.2435C46.0332 47.3603 46.1045 47.4663 46.1943 47.5554C46.2834 47.6452 46.3894 47.7165 46.5061 47.7652C46.6229 47.8138 46.7482 47.8389 46.8747 47.8389C47.0012 47.8389 47.1265 47.8138 47.2433 47.7652C47.36 47.7165 47.466 47.6452 47.5551 47.5554L51.3884 43.7221C51.4783 43.633 51.5496 43.527 51.5982 43.4102C51.6469 43.2934 51.6719 43.1682 51.6719 43.0417C51.6719 42.9152 51.6469 42.7899 51.5982 42.6731C51.5496 42.5563 51.4783 42.4503 51.3884 42.3612V42.3612ZM43.233 37.2917C43.107 37.2638 42.9766 37.2617 42.8498 37.2855C42.7229 37.3093 42.6021 37.3585 42.4947 37.4301C42.3873 37.5017 42.2955 37.5942 42.2248 37.7022C42.154 37.8101 42.1058 37.9313 42.083 38.0583L40.1664 47.6417C40.1385 47.7677 40.1364 47.8981 40.1602 48.0249C40.184 48.1518 40.2332 48.2726 40.3048 48.38C40.3764 48.4874 40.4689 48.5792 40.5769 48.6499C40.6848 48.7207 40.806 48.7689 40.933 48.7917H41.1247C41.3489 48.7962 41.5676 48.7219 41.7427 48.5819C41.9178 48.4418 42.0382 48.2447 42.083 48.025L43.9997 38.4417C44.0275 38.3156 44.0296 38.1853 44.0059 38.0584C43.9821 37.9315 43.9329 37.8108 43.8613 37.7034C43.7897 37.596 43.6971 37.5041 43.5892 37.4334C43.4812 37.3626 43.3601 37.3144 43.233 37.2917V37.2917Z" fill="#01966B"/>
</g>
<defs>
<clipPath id="clip0_34_1984">
<rect width="46" height="46" fill="white" transform="translate(21 21)"/>
</clipPath>
</defs>
</svg>
