<svg width="88" height="87" viewBox="0 0 88 87" fill="none" xmlns="http://www.w3.org/2000/svg">
<ellipse cx="43.9818" cy="43.2977" rx="43.9818" ry="43.2977" fill="#1D75B9" fill-opacity="0.1"/>
<path d="M44.349 25C34.2313 25 26 33.2313 26 43.349V50.9509C26 52.8299 27.6459 54.3583 29.6698 54.3583H31.5047C31.9913 54.3583 32.458 54.165 32.8022 53.8209C33.1463 53.4768 33.3396 53.0101 33.3396 52.5234V43.0866C33.3396 42.5999 33.1463 42.1332 32.8022 41.7891C32.458 41.445 31.9913 41.2517 31.5047 41.2517H29.8386C30.8588 34.1506 36.969 28.6698 44.349 28.6698C51.7289 28.6698 57.8391 34.1506 58.8593 41.2517H57.1932C56.7066 41.2517 56.2399 41.445 55.8958 41.7891C55.5517 42.1332 55.3583 42.5999 55.3583 43.0866V54.3583C55.3583 56.3822 53.7124 58.0281 51.6885 58.0281H48.0188V56.1932H40.6792V61.6979H51.6885C55.7363 61.6979 59.0281 58.4061 59.0281 54.3583C61.052 54.3583 62.6979 52.8299 62.6979 50.9509V43.349C62.6979 33.2313 54.4666 25 44.349 25Z" fill="#1D75B9"/>
</svg>
