<svg width="88" height="87" viewBox="0 0 88 87" fill="none" xmlns="http://www.w3.org/2000/svg">
<ellipse cx="43.9818" cy="43.2977" rx="43.9818" ry="43.2977" fill="white" fill-opacity="0.1"/>
<g clip-path="url(#clip0_34_2005)">
<path d="M67 59H66V34C66 33.2044 65.6839 32.4413 65.1213 31.8787C64.5587 31.3161 63.7957 31 63 31H60V22C60 21.2044 59.6839 20.4413 59.1213 19.8787C58.5587 19.3161 57.7957 19 57 19H31C30.2044 19 29.4413 19.3161 28.8787 19.8787C28.3161 20.4413 28 21.2044 28 22V31H25C24.2044 31 23.4413 31.3161 22.8787 31.8787C22.3161 32.4413 22 33.2044 22 34V59H21C20.7348 59 20.4804 59.1054 20.2929 59.2929C20.1054 59.4804 20 59.7348 20 60V62C20 62.6566 20.1293 63.3068 20.3806 63.9134C20.6319 64.52 21.0002 65.0712 21.4645 65.5355C21.9288 65.9998 22.48 66.3681 23.0866 66.6194C23.6932 66.8707 24.3434 67 25 67H63C63.6566 67 64.3068 66.8707 64.9134 66.6194C65.52 66.3681 66.0712 65.9998 66.5355 65.5355C66.9998 65.0712 67.3681 64.52 67.6194 63.9134C67.8707 63.3068 68 62.6566 68 62V60C68 59.7348 67.8946 59.4804 67.7071 59.2929C67.5196 59.1054 67.2652 59 67 59ZM30 27H58V50C58 50.2652 57.8946 50.5196 57.7071 50.7071C57.5196 50.8946 57.2652 51 57 51H31C30.7348 51 30.4804 50.8946 30.2929 50.7071C30.1054 50.5196 30 50.2652 30 50V27ZM30 22C30 21.7348 30.1054 21.4804 30.2929 21.2929C30.4804 21.1054 30.7348 21 31 21H57C57.2652 21 57.5196 21.1054 57.7071 21.2929C57.8946 21.4804 58 21.7348 58 22V25H30V22ZM24 34C24 33.7348 24.1054 33.4804 24.2929 33.2929C24.4804 33.1054 24.7348 33 25 33H28V50C28 50.7956 28.3161 51.5587 28.8787 52.1213C29.4413 52.6839 30.2044 53 31 53H57C57.7957 53 58.5587 52.6839 59.1213 52.1213C59.6839 51.5587 60 50.7956 60 50V33H63C63.2652 33 63.5196 33.1054 63.7071 33.2929C63.8946 33.4804 64 33.7348 64 34V59C48 59 48.5 58.77 48.11 59.55L47.38 61H40.62C39.81 59.39 39.74 59 39 59H24V34ZM66 62C66 62.7957 65.6839 63.5587 65.1213 64.1213C64.5587 64.6839 63.7957 65 63 65H25C24.2044 65 23.4413 64.6839 22.8787 64.1213C22.3161 63.5587 22 62.7957 22 62V61H38.38C39.19 62.61 39.26 63 40 63C48.62 63 48.52 63.2 48.89 62.45L49.62 61H66V62Z" fill="white"/>
<path d="M33 22C32.7348 22 32.4804 22.1054 32.2929 22.2929C32.1054 22.4804 32 22.7348 32 23C32 23.2652 32.1054 23.5196 32.2929 23.7071C32.4804 23.8946 32.7348 24 33 24C33.2652 24 33.5196 23.8946 33.7071 23.7071C33.8946 23.5196 34 23.2652 34 23C34 22.7348 33.8946 22.4804 33.7071 22.2929C33.5196 22.1054 33.2652 22 33 22ZM37 22C36.7348 22 36.4804 22.1054 36.2929 22.2929C36.1054 22.4804 36 22.7348 36 23C36 23.2652 36.1054 23.5196 36.2929 23.7071C36.4804 23.8946 36.7348 24 37 24C37.2652 24 37.5196 23.8946 37.7071 23.7071C37.8946 23.5196 38 23.2652 38 23C38 22.7348 37.8946 22.4804 37.7071 22.2929C37.5196 22.1054 37.2652 22 37 22ZM41 22C40.7348 22 40.4804 22.1054 40.2929 22.2929C40.1054 22.4804 40 22.7348 40 23C40 23.2652 40.1054 23.5196 40.2929 23.7071C40.4804 23.8946 40.7348 24 41 24C41.2652 24 41.5196 23.8946 41.7071 23.7071C41.8946 23.5196 42 23.2652 42 23C42 22.7348 41.8946 22.4804 41.7071 22.2929C41.5196 22.1054 41.2652 22 41 22ZM44 49C45.9778 49 47.9112 48.4135 49.5557 47.3147C51.2002 46.2159 52.4819 44.6541 53.2388 42.8268C53.9957 40.9996 54.1937 38.9889 53.8079 37.0491C53.422 35.1093 52.4696 33.3275 51.0711 31.9289C49.6725 30.5304 47.8907 29.578 45.9509 29.1921C44.0111 28.8063 42.0004 29.0043 40.1732 29.7612C38.3459 30.5181 36.7841 31.7998 35.6853 33.4443C34.5865 35.0888 34 37.0222 34 39C34 41.6522 35.0536 44.1957 36.9289 46.0711C38.8043 47.9464 41.3478 49 44 49ZM36.07 40H40.07C40.1629 42.3785 40.8505 44.6958 42.07 46.74C40.5078 46.3507 39.0995 45.4992 38.029 44.2967C36.9585 43.0942 36.2758 41.5967 36.07 40ZM44 31.88C45.222 33.6947 45.9146 35.8139 46 38H42C42.0854 35.8139 42.778 33.6947 44 31.88ZM46 40C45.9146 42.1861 45.222 44.3053 44 46.12C42.778 44.3053 42.0854 42.1861 42 40H46ZM46 46.74C47.2195 44.6958 47.9071 42.3785 48 40H52C51.7942 41.5967 51.1115 43.0942 50.041 44.2967C48.9705 45.4992 47.5622 46.3507 46 46.74ZM51.93 38H48C47.9071 35.6215 47.2195 33.3042 46 31.26C47.5492 31.6614 48.9424 32.5183 49.9995 33.7198C51.0566 34.9213 51.7291 36.4123 51.93 38ZM42 31.26C40.7805 33.3042 40.0929 35.6215 40 38H36C36.2058 36.4033 36.8885 34.9058 37.959 33.7033C39.0295 32.5008 40.4378 31.6493 42 31.26Z" fill="white"/>
</g>
<defs>
<clipPath id="clip0_34_2005">
<rect width="48" height="48" fill="white" transform="translate(20 19)"/>
</clipPath>
</defs>
</svg>
