<svg width="88" height="88" viewBox="0 0 88 88" fill="none" xmlns="http://www.w3.org/2000/svg">
<ellipse cx="43.9818" cy="43.8247" rx="43.9818" ry="43.8247" fill="#FF6635" fill-opacity="0.1"/>
<path d="M69.2949 33.7581V26.9192C69.2949 24.6677 67.5318 22.8808 65.3651 22.8808H26.2087C24.0424 22.8808 22.2793 24.6677 22.2793 26.9192V37.9218H23.873V34.5351H67.7012V58.487C67.7012 59.8595 66.6531 60.9316 65.3651 60.9316H26.2087C24.9208 60.9316 23.873 59.8595 23.873 58.487V55.4531H22.2793V58.487C22.2793 60.7384 24.0424 62.5253 26.2087 62.5253H65.3651C67.5318 62.5253 69.2949 60.7384 69.2949 58.487V33.7732C69.2949 33.7706 69.2949 33.7681 69.2949 33.7654C69.2949 33.7627 69.2949 33.7603 69.2949 33.7581ZM23.873 32.9413V26.9192C23.873 25.5466 24.9208 24.4745 26.2087 24.4745H65.3651C66.6531 24.4745 67.7012 25.5466 67.7012 26.9192V32.9413H23.873Z" fill="#FF6635"/>
<path d="M34.5611 25.5746C32.9702 25.5746 31.6759 26.9148 31.6759 28.5623C31.6759 30.2097 32.9702 31.55 34.5611 31.55C36.1521 31.55 37.4464 30.2097 37.4464 28.5623C37.4464 26.9148 36.1521 25.5746 34.5611 25.5746ZM34.5611 29.9562C33.8489 29.9562 33.2696 29.331 33.2696 28.5623C33.2696 27.7936 33.8489 27.1683 34.5611 27.1683C35.2733 27.1683 35.8527 27.7936 35.8527 28.5623C35.8527 29.331 35.2733 29.9562 34.5611 29.9562ZM41.3483 25.5746C39.7575 25.5746 38.463 26.9148 38.463 28.5623C38.463 30.2097 39.758 31.55 41.3483 31.55C42.9387 31.55 44.2336 30.2097 44.2336 28.5623C44.2336 26.9148 42.9393 25.5746 41.3483 25.5746ZM41.3483 29.9562C40.6362 29.9562 40.0568 29.331 40.0568 28.5623C40.0568 27.7936 40.6362 27.1683 41.3483 27.1683C42.0604 27.1683 42.6399 27.7936 42.6399 28.5623C42.6399 29.331 42.0607 29.9562 41.3483 29.9562ZM27.774 25.5746C26.183 25.5746 24.8887 26.9148 24.8887 28.5623C24.8887 30.2097 26.183 31.55 27.774 31.55C29.3649 31.55 30.6592 30.2097 30.6592 28.5623C30.6592 26.9148 29.3649 25.5746 27.774 25.5746ZM27.774 29.9562C27.0617 29.9562 26.4824 29.331 26.4824 28.5623C26.4824 27.7936 27.0617 27.1683 27.774 27.1683C28.4862 27.1683 29.0655 27.7936 29.0655 28.5623C29.0655 29.331 28.4861 29.9562 27.774 29.9562Z" fill="#FF6635"/>
<path d="M26.1307 48.6796C25.692 48.6791 25.2614 48.7985 24.8856 49.0248C24.5178 48.8042 24.098 48.6851 23.6691 48.6797C23.2402 48.6743 22.8176 48.7829 22.4444 48.9942C22.0711 49.2056 21.7607 49.5122 21.5447 49.8827C21.3287 50.2533 21.2148 50.6745 21.2148 51.1034C21.2148 51.5323 21.3287 51.9536 21.5447 52.3241C21.7607 52.6947 22.0711 53.0013 22.4444 53.2126C22.8176 53.424 23.2402 53.5325 23.6691 53.5271C24.098 53.5218 24.5178 53.4027 24.8856 53.182C25.2059 53.374 25.5663 53.4893 25.9385 53.519C26.3107 53.5487 26.6848 53.492 27.0315 53.3533C27.3782 53.2146 27.6882 52.9976 27.9372 52.7194C28.1862 52.4411 28.3676 52.1091 28.4671 51.7491C28.5666 51.3892 28.5817 51.0112 28.511 50.6445C28.4403 50.2779 28.2859 49.9325 28.0597 49.6353C27.8335 49.3382 27.5418 49.0973 27.2071 48.9316C26.8725 48.7658 26.5041 48.6796 26.1307 48.6797V48.6796ZM22.8103 51.1034C22.8098 50.9769 22.8384 50.8519 22.8938 50.7382C22.9491 50.6244 23.0299 50.5249 23.1298 50.4473C23.2296 50.3697 23.346 50.316 23.4699 50.2904C23.5938 50.2648 23.7219 50.268 23.8444 50.2997C23.661 50.8198 23.661 51.387 23.8444 51.9071C23.7219 51.9389 23.5938 51.942 23.4699 51.9165C23.346 51.8909 23.2296 51.8372 23.1297 51.7595C23.0298 51.6819 22.9491 51.5824 22.8937 51.4686C22.8384 51.3548 22.8098 51.2299 22.8103 51.1034ZM26.1307 51.9335C26.0619 51.9333 25.9934 51.9244 25.9267 51.9071C26.1101 51.387 26.1101 50.8198 25.9267 50.2997C26.0408 50.2707 26.1597 50.2662 26.2756 50.2866C26.3916 50.3071 26.5018 50.3519 26.5991 50.4182C26.6963 50.4846 26.7783 50.5708 26.8397 50.6713C26.901 50.7717 26.9403 50.8841 26.9549 51.0009C26.9695 51.1177 26.959 51.2362 26.9243 51.3487C26.8895 51.4611 26.8312 51.5649 26.7533 51.6531C26.6753 51.7413 26.5795 51.8119 26.4722 51.8602C26.3648 51.9085 26.2484 51.9335 26.1307 51.9333V51.9335Z" fill="#FF6635"/>
<path d="M43.6953 56.4284C43.6953 56.6398 43.7793 56.8424 43.9287 56.9919C44.0782 57.1413 44.2808 57.2253 44.4922 57.2253C44.7035 57.2253 44.9062 57.1413 45.0557 56.9919C45.2051 56.8424 45.2891 56.6398 45.2891 56.4284V36.9464C45.2891 36.7351 45.2051 36.5324 45.0557 36.3829C44.9062 36.2335 44.7035 36.1495 44.4922 36.1495C44.2808 36.1495 44.0782 36.2335 43.9287 36.3829C43.7793 36.5324 43.6953 36.7351 43.6953 36.9464V37.1249H22.0801C21.2329 37.1306 20.4223 37.471 19.8251 38.0721C19.228 38.6731 18.8927 39.4859 18.8926 40.3331V53.0417C18.8927 53.8889 19.228 54.7017 19.8251 55.3028C20.4223 55.9038 21.2329 56.2443 22.0801 56.2499H43.6953V56.4284ZM20.4863 42.8026H43.6953V44.8944H20.4863V42.8026ZM22.0801 38.7187H43.6953V41.2089H20.4863V40.3331C20.4861 39.9084 20.6533 39.5008 20.9516 39.1986C21.25 38.8963 21.6554 38.7239 22.0801 38.7187ZM22.0801 54.6562C21.6554 54.6509 21.25 54.4785 20.9516 54.1763C20.6533 53.874 20.4861 53.4664 20.4863 53.0417V46.4882H43.6953V54.6562H22.0801Z" fill="#FF6635"/>
</svg>
