<svg width="88" height="88" viewBox="0 0 88 88" fill="none" xmlns="http://www.w3.org/2000/svg">
<ellipse cx="43.9818" cy="43.8247" rx="43.9818" ry="43.8247" fill="#D8292F" fill-opacity="0.1"/>
<path d="M35.9075 29.0177C35.9075 28.5949 36.2503 28.2521 36.6731 28.2521H46.9831C47.406 28.2521 47.7488 28.5949 47.7488 29.0177C47.7488 29.4405 47.406 29.7833 46.9831 29.7833H36.6731C36.2503 29.7833 35.9075 29.4405 35.9075 29.0177ZM36.6731 33.8067H46.9831C47.406 33.8067 47.7488 33.4639 47.7488 33.0411C47.7488 32.6183 47.406 32.2755 46.9831 32.2755H36.6731C36.2503 32.2755 35.9075 32.6183 35.9075 33.0411C35.9075 33.4639 36.2503 33.8067 36.6731 33.8067ZM36.6731 37.8302H46.9831C47.406 37.8302 47.7488 37.4874 47.7488 37.0645C47.7488 36.6417 47.406 36.2989 46.9831 36.2989H36.6731C36.2503 36.2989 35.9075 36.6417 35.9075 37.0645C35.9075 37.4874 36.2503 37.8302 36.6731 37.8302ZM50.3256 40.3224H36.6731C36.2503 40.3224 35.9075 40.6652 35.9075 41.088C35.9075 41.5108 36.2503 41.8536 36.6731 41.8536H50.3256C50.7484 41.8536 51.0912 41.5108 51.0912 41.088C51.0912 40.6652 50.7484 40.3224 50.3256 40.3224ZM50.3256 44.3457H36.6731C36.2503 44.3457 35.9075 44.6885 35.9075 45.1114C35.9075 45.5342 36.2503 45.877 36.6731 45.877H50.3256C50.7484 45.877 51.0912 45.5342 51.0912 45.1114C51.0912 44.6885 50.7484 44.3457 50.3256 44.3457ZM36.6731 25.7599H46.4735C46.8963 25.7599 47.2391 25.4171 47.2391 24.9943C47.2391 24.5715 46.8963 24.2286 46.4735 24.2286H36.6731C36.2503 24.2286 35.9075 24.5715 35.9075 24.9943C35.9075 25.4171 36.2503 25.7599 36.6731 25.7599ZM64.3463 55.0339C64.3463 57.1586 62.6177 58.8871 60.4931 58.8871H50.5762V62.2613H54.5103C56.3843 62.2613 57.9089 63.5485 57.9089 65.1306V67.2344C57.9089 67.6572 57.5661 68 57.1433 68H29.8553C29.4325 68 29.0897 67.6572 29.0897 67.2344V65.1306C29.0897 63.5485 30.6144 62.2613 32.4884 62.2613H36.4225V58.8871H26.5055C24.3809 58.8871 22.6523 57.1585 22.6523 55.0339V33.793C22.6523 31.6683 24.3809 29.9398 26.5055 29.9398H31.2003V19.7656C31.2003 19.3428 31.5431 19 31.9659 19H51.2957C51.4988 19 51.6935 19.0807 51.8371 19.2242L55.5744 22.9615C55.718 23.1051 55.7986 23.2998 55.7986 23.5029V24.3468H57.3966C57.7727 24.3468 58.0931 24.6201 58.1526 24.9914L58.4102 26.6008C58.6226 26.6751 58.8306 26.7613 59.0334 26.8592L60.3539 25.9033C60.6585 25.6828 61.0782 25.716 61.3444 25.982L62.7113 27.3489C62.9771 27.6149 63.0105 28.0347 62.7899 28.3393L61.8339 29.6598C61.9318 29.8626 62.0181 30.0707 62.0923 30.283L63.7018 30.5406C64.0732 30.6001 64.3464 30.9205 64.3464 31.2966L64.3463 55.0339ZM62.0923 34.2434C62.0181 34.4558 61.9317 34.6638 61.8339 34.8666L62.7899 36.1871C62.7988 36.1996 62.8068 36.2126 62.815 36.2254V34.1278L62.0923 34.2434ZM55.8861 27.3153C55.8379 27.6165 55.6154 27.8605 55.3197 27.936C54.9114 28.0404 54.5199 28.2028 54.1559 28.4186C53.8934 28.5741 53.5635 28.5592 53.3164 28.3802L52.1369 27.5263L51.6932 27.9701L52.5471 29.1496C52.7261 29.3968 52.7412 29.7267 52.5855 29.9891C52.3698 30.3528 52.2075 30.7444 52.103 31.153C52.0274 31.4486 51.7834 31.6711 51.4822 31.7192L50.0448 31.9494V32.5769L51.4822 32.807C51.7834 32.8552 52.0274 33.0777 52.103 33.3733C52.2075 33.7819 52.3698 34.1734 52.5855 34.5371C52.7412 34.7996 52.7261 35.1295 52.5471 35.3767L51.6932 36.5564L52.1369 37L53.3164 36.1461C53.5636 35.967 53.8935 35.952 54.1559 36.1077C54.52 36.3237 54.9116 36.4861 55.3197 36.5904C55.6154 36.666 55.8379 36.9099 55.8861 37.2112L56.1161 38.6483H56.7437L56.9738 37.211C57.022 36.9098 57.2444 36.6659 57.54 36.5902C57.9487 36.4857 58.3402 36.3233 58.7039 36.1076C58.9663 35.9519 59.2961 35.9669 59.5434 36.146L60.723 37L61.1667 36.5563L60.3128 35.3767C60.1338 35.1295 60.1187 34.7996 60.2744 34.5372C60.4903 34.1733 60.6526 33.7817 60.757 33.3733C60.8326 33.0776 61.0766 32.8551 61.3778 32.807L62.8151 32.5769V31.9494L61.3777 31.7193C61.0765 31.6711 60.8325 31.4486 60.7569 31.1531C60.6525 30.7447 60.4902 30.3532 60.2743 29.9891C60.1187 29.7266 60.1338 29.3968 60.3128 29.1497L61.1667 27.9702L60.723 27.5264L59.5434 28.3803C59.2962 28.5593 58.9663 28.5744 58.7039 28.4187C58.3399 28.2029 57.9484 28.0405 57.5401 27.9361C57.2445 27.8605 57.022 27.6166 56.9738 27.3154L56.7437 25.8781H56.1161L55.8861 27.3153ZM52.0612 22.7373H53.1845L52.0612 21.614V22.7373ZM32.7314 48.897H54.2672V37.856C54.1181 37.7983 53.9705 37.7368 53.8264 37.6672L52.506 38.6233C52.2015 38.8439 51.7817 38.8105 51.5155 38.5445L50.1486 37.1776C49.8828 36.9116 49.8494 36.4919 50.07 36.1872L51.0259 34.8667C50.9281 34.6639 50.8418 34.456 50.7676 34.2435L49.1581 33.9859C48.7867 33.9264 48.5135 33.606 48.5135 33.2299V31.2968C48.5135 30.9207 48.7867 30.6003 49.1581 30.5408L50.7676 30.2832C50.8418 30.0708 50.9281 29.8628 51.0259 29.66L50.07 28.3395C49.8494 28.0349 49.8828 27.6151 50.1486 27.3491L51.5155 25.9822C51.7816 25.7162 52.2013 25.6829 52.506 25.9034L53.8264 26.8594C53.9705 26.7899 54.1182 26.7283 54.2672 26.6706V24.2686H51.2955C50.8727 24.2686 50.5299 23.9257 50.5299 23.5029V20.5312H32.7314V48.897ZM31.9658 50.4282C31.543 50.4282 31.2002 50.0854 31.2002 49.6626V34.053H26.7655V52.1548H60.2331V38.5359L59.0332 37.6671C58.8305 37.7649 58.6225 37.8512 58.4101 37.9255L58.1525 39.535C58.093 39.9063 57.7725 40.1796 57.3965 40.1796H55.7985V49.6625C55.7985 50.0853 55.4557 50.4281 55.0329 50.4281H31.9658V50.4282ZM54.5104 63.7925H32.4883C31.4761 63.7925 30.6209 64.4053 30.6209 65.1306V66.4688H56.3776V65.1306C56.3776 64.4052 55.5225 63.7925 54.5104 63.7925ZM49.045 58.8871H37.9537V62.2613H49.0451V58.8871H49.045ZM62.815 55.0339V37.047C62.7855 37.0933 62.7514 37.1373 62.7112 37.1775L61.7644 38.1243V52.9204C61.7644 53.3433 61.4216 53.6861 60.9988 53.6861H25.9998C25.577 53.6861 25.2342 53.3433 25.2342 52.9204V33.7155C25.2342 33.0573 25.7698 32.5217 26.4281 32.5217H31.2002V31.4711H26.5055C25.2252 31.4711 24.1836 32.5127 24.1836 33.793V55.0339C24.1836 56.3142 25.2252 57.3558 26.5055 57.3558H60.4932C61.7734 57.3558 62.815 56.3142 62.815 55.0339ZM56.4299 28.6412C58.427 28.6412 60.0519 30.2661 60.0519 32.2632C60.0519 34.2604 58.427 35.8852 56.4299 35.8852C54.4328 35.8852 52.8079 34.2603 52.8079 32.2632C52.808 30.2661 54.4328 28.6412 56.4299 28.6412ZM54.3393 32.2632C54.3393 33.416 55.2772 34.3539 56.43 34.3539C57.5828 34.3539 58.5207 33.416 58.5207 32.2632C58.5207 31.1104 57.5828 30.1725 56.43 30.1725C55.2772 30.1725 54.3393 31.1104 54.3393 32.2632Z" fill="#D8292F"/>
</svg>
