<svg width="53" height="53" viewBox="0 0 53 53" fill="none" xmlns="http://www.w3.org/2000/svg">
<g clip-path="url(#clip0_34_2084)">
<path d="M49.1138 0H4.37598C2.23291 0 0.5 1.69189 0.5 3.78369V48.7061C0.5 50.7979 2.23291 52.5 4.37598 52.5H49.1138C51.2568 52.5 53 50.7979 53 48.7163V3.78369C53 1.69189 51.2568 0 49.1138 0ZM16.0757 44.7378H8.28272V19.6772H16.0757V44.7378ZM12.1792 16.2627C9.67725 16.2627 7.65723 14.2427 7.65723 11.751C7.65723 9.25928 9.67725 7.23926 12.1792 7.23926C14.6709 7.23926 16.6909 9.25928 16.6909 11.751C16.6909 14.2324 14.6709 16.2627 12.1792 16.2627ZM45.2378 44.7378H37.4551V32.5562C37.4551 29.6543 37.4038 25.9116 33.4048 25.9116C29.3545 25.9116 28.7393 29.0801 28.7393 32.3511V44.7378H20.9668V19.6772H28.4316V23.1021H28.5342C29.5698 21.1333 32.1128 19.0518 35.8965 19.0518C43.7817 19.0518 45.2378 24.2402 45.2378 30.9873V44.7378Z" fill="white"/>
</g>
<defs>
<clipPath id="clip0_34_2084">
<rect width="52.5" height="52.5" fill="white" transform="translate(0.5)"/>
</clipPath>
</defs>
</svg>
