<svg width="60" height="61" viewBox="0 0 60 61" fill="none" xmlns="http://www.w3.org/2000/svg">
<circle opacity="0.1" cx="29.9237" cy="30.6867" r="29.8104" fill="#979797"/>
<path d="M30.7672 18.8547C24.8959 18.8547 20.1191 23.6315 20.1191 29.5028V33.9143C20.1191 35.0047 21.0743 35.8917 22.2488 35.8917H23.3136C23.596 35.8917 23.8668 35.7795 24.0665 35.5798C24.2662 35.3801 24.3784 35.1093 24.3784 34.8269V29.3506C24.3784 29.0681 24.2662 28.7973 24.0665 28.5976C23.8668 28.3979 23.596 28.2857 23.3136 28.2857H22.3467C22.9388 24.1649 26.4846 20.9844 30.7672 20.9844C35.0499 20.9844 38.5957 24.1649 39.1877 28.2857H38.2209C37.9385 28.2857 37.6676 28.3979 37.4679 28.5976C37.2683 28.7973 37.1561 29.0681 37.1561 29.3506V35.8917C37.1561 37.0661 36.2009 38.0213 35.0265 38.0213H32.8968V36.9565H28.6376V40.1509H35.0265C37.3754 40.1509 39.2857 38.2406 39.2857 35.8917C40.4602 35.8917 41.4153 35.0047 41.4153 33.9143V29.5028C41.4153 23.6315 36.6386 18.8547 30.7672 18.8547Z" fill="#835494"/>
</svg>
