<svg width="53" height="53" viewBox="0 0 53 53" fill="none" xmlns="http://www.w3.org/2000/svg">
<g clip-path="url(#clip0_34_2094)">
<path d="M52.5 26.25C52.5 11.7525 40.7475 0 26.25 0C11.7525 0 0 11.7525 0 26.25C0 39.3519 9.59919 50.2118 22.1484 52.1811V33.8379H15.4834V26.25H22.1484V20.4668C22.1484 13.8879 26.0675 10.2539 32.0635 10.2539C34.9345 10.2539 37.9395 10.7666 37.9395 10.7666V17.2266H34.6295C31.3688 17.2266 30.3516 19.2502 30.3516 21.3281V26.25H37.6318L36.468 33.8379H30.3516V52.1811C42.9008 50.2118 52.5 39.3519 52.5 26.25Z" fill="white"/>
</g>
<defs>
<clipPath id="clip0_34_2094">
<rect width="52.5" height="52.5" fill="white"/>
</clipPath>
</defs>
</svg>
