<svg width="53" height="53" viewBox="0 0 53 53" fill="none" xmlns="http://www.w3.org/2000/svg">
<g clip-path="url(#clip0_34_2087)">
<path d="M26.25 4.72705C33.2637 4.72705 34.0942 4.75781 36.8525 4.88086C39.416 4.99365 40.8003 5.42432 41.7231 5.7832C42.9434 6.25488 43.8252 6.8291 44.7378 7.7417C45.6606 8.66455 46.2246 9.53613 46.6963 10.7563C47.0552 11.6792 47.4858 13.0737 47.5986 15.627C47.7217 18.3955 47.7524 19.2261 47.7524 26.2295C47.7524 33.2432 47.7217 34.0737 47.5986 36.832C47.4858 39.3955 47.0552 40.7798 46.6963 41.7026C46.2246 42.9229 45.6504 43.8047 44.7378 44.7173C43.8149 45.6401 42.9434 46.2041 41.7231 46.6758C40.8003 47.0347 39.4058 47.4653 36.8525 47.5781C34.084 47.7012 33.2534 47.7319 26.25 47.7319C19.2363 47.7319 18.4058 47.7012 15.6475 47.5781C13.084 47.4653 11.6997 47.0347 10.7769 46.6758C9.55664 46.2041 8.6748 45.6299 7.76221 44.7173C6.83936 43.7944 6.27539 42.9229 5.80371 41.7026C5.44482 40.7798 5.01416 39.3853 4.90137 36.832C4.77832 34.0635 4.74756 33.2329 4.74756 26.2295C4.74756 19.2158 4.77832 18.3853 4.90137 15.627C5.01416 13.0635 5.44482 11.6792 5.80371 10.7563C6.27539 9.53613 6.84961 8.6543 7.76221 7.7417C8.68506 6.81885 9.55664 6.25488 10.7769 5.7832C11.6997 5.42432 13.0942 4.99365 15.6475 4.88086C18.4058 4.75781 19.2363 4.72705 26.25 4.72705ZM26.25 0C19.1235 0 18.2314 0.0307617 15.4321 0.153809C12.6431 0.276855 10.7256 0.728027 9.06445 1.37402C7.33154 2.05078 5.86523 2.94287 4.40918 4.40918C2.94287 5.86523 2.05078 7.33154 1.37402 9.0542C0.728027 10.7256 0.276855 12.6328 0.153809 15.4219C0.0307617 18.2314 0 19.1235 0 26.25C0 33.3765 0.0307617 34.2686 0.153809 37.0679C0.276855 39.8569 0.728027 41.7744 1.37402 43.4355C2.05078 45.1685 2.94287 46.6348 4.40918 48.0908C5.86523 49.5469 7.33154 50.4492 9.0542 51.1157C10.7256 51.7617 12.6328 52.2129 15.4219 52.3359C18.2212 52.459 19.1133 52.4897 26.2397 52.4897C33.3662 52.4897 34.2583 52.459 37.0576 52.3359C39.8467 52.2129 41.7642 51.7617 43.4253 51.1157C45.148 50.4492 46.6143 49.5469 48.0703 48.0908C49.5264 46.6348 50.4287 45.1685 51.0952 43.4458C51.7412 41.7744 52.1924 39.8672 52.3154 37.0781C52.4385 34.2788 52.4692 33.3867 52.4692 26.2603C52.4692 19.1338 52.4385 18.2417 52.3154 15.4424C52.1924 12.6533 51.7412 10.7358 51.0952 9.07471C50.4492 7.33154 49.5571 5.86523 48.0908 4.40918C46.6348 2.95312 45.1685 2.05078 43.4458 1.38428C41.7744 0.738281 39.8672 0.287109 37.0781 0.164062C34.2686 0.0307617 33.3765 0 26.25 0Z" fill="white"/>
<path d="M26.2495 12.7661C18.8052 12.7661 12.7656 18.8057 12.7656 26.25C12.7656 33.6943 18.8052 39.7339 26.2495 39.7339C33.6938 39.7339 39.7334 33.6943 39.7334 26.25C39.7334 18.8057 33.6938 12.7661 26.2495 12.7661ZM26.2495 34.9966C21.4199 34.9966 17.5029 31.0796 17.5029 26.25C17.5029 21.4204 21.4199 17.5034 26.2495 17.5034C31.0791 17.5034 34.9961 21.4204 34.9961 26.25C34.9961 31.0796 31.0791 34.9966 26.2495 34.9966Z" fill="white"/>
<path d="M43.415 12.2329C43.415 13.9761 42 15.3809 40.2671 15.3809C38.5239 15.3809 37.1191 13.9658 37.1191 12.2329C37.1191 10.4897 38.5342 9.08496 40.2671 9.08496C42 9.08496 43.415 10.5 43.415 12.2329Z" fill="white"/>
</g>
<defs>
<clipPath id="clip0_34_2087">
<rect width="52.5" height="52.5" fill="white"/>
</clipPath>
</defs>
</svg>
