<svg width="60" height="61" viewBox="0 0 60 61" fill="none" xmlns="http://www.w3.org/2000/svg">
<circle opacity="0.1" cx="29.9374" cy="30.6867" r="29.8104" fill="#E177F6"/>
<path d="M25.0272 21.2825C25.3813 21.2825 25.6842 21.3179 25.936 21.3887C26.1878 21.4595 26.4159 21.5539 26.6205 21.6719C26.8251 21.79 27.006 21.9119 27.1634 22.0378C27.3207 22.1637 27.4781 22.2857 27.6355 22.4037C27.7928 22.5217 27.9659 22.6122 28.1548 22.6751C28.3436 22.7381 28.56 22.7774 28.8039 22.7931H40.5115C40.724 22.7931 40.9207 22.8325 41.1016 22.9112C41.2826 22.9898 41.4399 23.0961 41.5737 23.2298C41.7075 23.3636 41.8176 23.5249 41.9042 23.7137C41.9907 23.9025 42.0301 24.0992 42.0222 24.3038V34.8785H40.5115V24.3038H28.8039C28.56 24.3038 28.3475 24.3392 28.1666 24.41C27.9856 24.4808 27.8125 24.5753 27.6473 24.6933C27.482 24.8113 27.3207 24.9332 27.1634 25.0591C27.006 25.185 26.829 25.307 26.6323 25.425C26.4356 25.543 26.2074 25.6335 25.9478 25.6964C25.6881 25.7594 25.3813 25.7987 25.0272 25.8145H19.3622V37.8998H31.4475V39.4104H17.8516V22.7931C17.8516 22.5807 17.8909 22.384 17.9696 22.203C18.0483 22.0221 18.1545 21.8647 18.2882 21.731C18.422 21.5972 18.5833 21.487 18.7721 21.4005C18.961 21.3139 19.1577 21.2746 19.3622 21.2825H25.0272ZM25.0272 24.3038C25.216 24.3038 25.3813 24.2881 25.5229 24.2566C25.6645 24.2251 25.7943 24.174 25.9124 24.1032C26.0304 24.0324 26.1445 23.9537 26.2546 23.8671C26.3648 23.7806 26.4907 23.6744 26.6323 23.5485C26.4985 23.4305 26.3766 23.3282 26.2664 23.2416C26.1563 23.1551 26.0383 23.0764 25.9124 23.0056C25.7865 22.9348 25.6567 22.8836 25.5229 22.8522C25.3891 22.8207 25.2239 22.801 25.0272 22.7931H19.3622V24.3038H25.0272ZM39.0009 37.8998H42.0222V39.4104H39.0009V42.4318H37.4902V39.4104H34.4689V37.8998H37.4902V34.8785H39.0009V37.8998ZM35 29.3669L29.9369 34.4418L24.8738 29.3669L25.936 28.3047L29.9369 32.2938L33.9378 28.3047L35 29.3669Z" fill="#E07AF8"/>
</svg>
