<svg width="60" height="61" viewBox="0 0 60 61" fill="none" xmlns="http://www.w3.org/2000/svg">
<circle opacity="0.1" cx="29.9511" cy="30.6867" r="29.8104" fill="#7249FB"/>
<g clip-path="url(#clip0_16_2902)">
<path d="M29.6485 33.0488C30.7633 32.3082 31.61 31.2285 32.0634 29.9693C32.5168 28.7102 32.5528 27.3385 32.166 26.0573C31.7793 24.7761 30.9903 23.6535 29.9159 22.8555C28.8415 22.0576 27.5387 21.6267 26.2004 21.6267C24.8621 21.6267 23.5594 22.0576 22.485 22.8555C21.4106 23.6535 20.6216 24.7761 20.2348 26.0573C19.8481 27.3385 19.8841 28.7102 20.3375 29.9693C20.7909 31.2285 21.6376 32.3082 22.7523 33.0488C20.8507 33.7481 19.2088 35.013 18.0476 36.6734C17.9719 36.7611 17.9154 36.8637 17.8817 36.9745C17.848 37.0853 17.8378 37.202 17.8518 37.317C17.8659 37.4319 17.9038 37.5427 17.9632 37.6422C18.0225 37.7416 18.102 37.8276 18.1966 37.8945C18.2912 37.9614 18.3987 38.0078 18.5122 38.0307C18.6258 38.0537 18.7428 38.0526 18.8559 38.0276C18.9691 38.0026 19.0757 37.9542 19.169 37.8855C19.2623 37.8169 19.3402 37.7295 19.3977 37.6289C20.1655 36.5382 21.1843 35.648 22.3683 35.0336C23.5522 34.4191 24.8665 34.0984 26.2004 34.0984C27.5343 34.0984 28.8487 34.4191 30.0326 35.0336C31.2165 35.648 32.2354 36.5382 33.0031 37.6289C33.0607 37.7295 33.1386 37.8169 33.2319 37.8855C33.3252 37.9542 33.4318 38.0026 33.5449 38.0276C33.658 38.0526 33.7751 38.0537 33.8887 38.0307C34.0022 38.0078 34.1097 37.9614 34.2043 37.8945C34.2988 37.8276 34.3783 37.7416 34.4377 37.6422C34.4971 37.5427 34.535 37.4319 34.5491 37.317C34.5631 37.202 34.5529 37.0853 34.5192 36.9745C34.4855 36.8637 34.429 36.7611 34.3533 36.6734C33.1921 35.013 31.5502 33.7481 29.6485 33.0488V33.0488ZM21.6307 27.8663C21.6307 26.9624 21.8987 26.0789 22.4008 25.3274C22.903 24.5759 23.6167 23.9902 24.4517 23.6444C25.2867 23.2985 26.2055 23.208 27.092 23.3843C27.9784 23.5606 28.7927 23.9959 29.4317 24.6349C30.0708 25.274 30.5061 26.0883 30.6824 26.9747C30.8587 27.8612 30.7682 28.78 30.4223 29.615C30.0765 30.45 29.4908 31.1637 28.7393 31.6659C27.9878 32.168 27.1043 32.436 26.2004 32.436C24.9885 32.436 23.8261 31.9546 22.9691 31.0976C22.1121 30.2406 21.6307 29.0782 21.6307 27.8663ZM42.6204 37.8263C42.5321 37.8898 42.4319 37.9352 42.3259 37.9597C42.2198 37.9843 42.11 37.9874 42.0027 37.9691C41.8954 37.9507 41.7928 37.9112 41.7009 37.8528C41.6091 37.7944 41.5298 37.7183 41.4676 37.6289C40.6992 36.5387 39.6803 35.6489 38.4965 35.0344C37.3127 34.4199 35.9987 34.0987 34.6649 34.0977C34.4445 34.0977 34.2332 34.0102 34.0774 33.8544C33.9215 33.6986 33.834 33.4872 33.834 33.2669C33.834 33.0465 33.9215 32.8352 34.0774 32.6794C34.2332 32.5236 34.4445 32.436 34.6649 32.436C35.8769 32.436 37.0392 31.9546 37.8962 31.0976C38.7532 30.2406 39.2346 29.0782 39.2346 27.8663C39.2346 26.6543 38.7532 25.4919 37.8962 24.6349C37.0392 23.778 35.8769 23.2965 34.6649 23.2965C34.2475 23.2993 33.8322 23.3551 33.429 23.4627C33.3239 23.4928 33.214 23.5019 33.1055 23.4895C32.9969 23.4771 32.8919 23.4434 32.7964 23.3903C32.7009 23.3373 32.6168 23.2659 32.5489 23.1803C32.481 23.0947 32.4307 22.9965 32.4008 22.8915C32.3428 22.6794 32.3701 22.4531 32.4768 22.2609C32.5836 22.0688 32.7613 21.926 32.972 21.8633C33.5241 21.7146 34.0931 21.6378 34.6649 21.6348C36.0046 21.6299 37.31 22.0577 38.387 22.8545C39.4641 23.6512 40.2551 24.7743 40.6426 26.0568C41.03 27.3392 40.9931 28.7125 40.5373 29.9723C40.0815 31.2321 39.2313 32.3111 38.113 33.0488C40.0159 33.7509 41.6603 35.015 42.8281 36.6734C42.9528 36.8541 43.0009 37.0767 42.962 37.2927C42.9231 37.5087 42.8003 37.7005 42.6204 37.8263V37.8263Z" fill="#8255FD"/>
</g>
<defs>
<clipPath id="clip0_16_2902">
<rect width="26.5877" height="26.5877" fill="white" transform="translate(17.0605 16.6497)"/>
</clipPath>
</defs>
</svg>
