<svg width="60" height="61" viewBox="0 0 60 61" fill="none" xmlns="http://www.w3.org/2000/svg">
<circle cx="29.9237" cy="30.6867" r="29.8104" fill="#FBF5E6"/>
<path d="M39.4807 38.6771C37.9691 36.0697 35.4985 34.1563 32.5959 33.3451C33.9656 32.6494 35.061 31.5126 35.7055 30.1181C36.35 28.7236 36.506 27.1527 36.1483 25.6587C35.7906 24.1646 34.9401 22.8347 33.734 21.8832C32.5279 20.9318 31.0365 20.4143 29.5002 20.4143C27.964 20.4143 26.4726 20.9318 25.2664 21.8832C24.0603 22.8347 23.2098 24.1646 22.8522 25.6587C22.4945 27.1527 22.6505 28.7236 23.295 30.1181C23.9394 31.5126 25.0349 32.6494 26.4045 33.3451C23.502 34.1563 21.0313 36.0697 19.5198 38.6771C19.4799 38.7434 19.4538 38.8171 19.4431 38.8937C19.4323 38.9703 19.4371 39.0484 19.4572 39.1231C19.4772 39.1978 19.5121 39.2678 19.5598 39.3287C19.6075 39.3897 19.6669 39.4404 19.7346 39.4779C19.8013 39.5164 19.8749 39.5414 19.9512 39.5514C20.0276 39.5615 20.1052 39.5564 20.1795 39.5364C20.2539 39.5165 20.3236 39.4821 20.3847 39.4351C20.4457 39.3882 20.4969 39.3297 20.5354 39.263C21.4439 37.6893 22.7507 36.3825 24.3243 35.4739C25.898 34.5653 27.6831 34.087 29.5002 34.087C31.3174 34.087 33.1025 34.5653 34.6761 35.4739C36.2498 36.3825 37.5566 37.6893 38.4651 39.263C38.5165 39.3521 38.5906 39.4262 38.6797 39.4776C38.7689 39.529 38.87 39.5561 38.9729 39.556C39.0755 39.5544 39.1761 39.5276 39.2659 39.4779C39.3336 39.4404 39.393 39.3897 39.4407 39.3287C39.4883 39.2678 39.5232 39.1978 39.5433 39.1231C39.5633 39.0484 39.5681 38.9703 39.5574 38.8937C39.5466 38.8171 39.5205 38.7434 39.4807 38.6771V38.6771ZM23.8362 27.2513C23.8362 26.1311 24.1684 25.036 24.7907 24.1045C25.4131 23.1731 26.2977 22.4471 27.3327 22.0184C28.3677 21.5897 29.5065 21.4775 30.6052 21.6961C31.704 21.9146 32.7132 22.4541 33.5053 23.2462C34.2975 24.0383 34.8369 25.0476 35.0555 26.1463C35.274 27.245 35.1618 28.3839 34.7331 29.4188C34.3044 30.4538 33.5785 31.3384 32.647 31.9608C31.7156 32.5832 30.6205 32.9154 29.5002 32.9154C27.998 32.9154 26.5574 32.3186 25.4951 31.2564C24.4329 30.1942 23.8362 28.7535 23.8362 27.2513Z" fill="#FE9151"/>
</svg>
