<svg width="53" height="53" viewBox="0 0 53 53" fill="none" xmlns="http://www.w3.org/2000/svg">
<g clip-path="url(#clip0_34_2092)">
<path d="M17.016 47.5773C36.8224 47.5773 47.6587 31.1638 47.6587 16.9345C47.6587 16.4731 47.6485 16.0014 47.628 15.5399C49.736 14.0155 51.5551 12.1272 53 9.96388C51.0368 10.8373 48.9523 11.4078 46.8179 11.6558C49.0653 10.3086 50.748 8.19238 51.5542 5.69928C49.44 6.95226 47.1278 7.83612 44.7169 8.313C43.0925 6.58695 40.9447 5.4441 38.6056 5.06115C36.2665 4.67819 33.8664 5.07646 31.7763 6.19437C29.6863 7.31228 28.0227 9.08758 27.0428 11.2458C26.0629 13.404 25.8213 15.8249 26.3552 18.1342C22.0742 17.9194 17.8861 16.8073 14.0625 14.87C10.2388 12.9327 6.86495 10.2136 4.15962 6.88873C2.78462 9.25938 2.36387 12.0646 2.98288 14.7344C3.60189 17.4041 5.2142 19.738 7.49214 21.2616C5.782 21.2073 4.10932 20.7469 2.6123 19.9184V20.0517C2.61077 22.5395 3.47084 24.9511 5.0463 26.8765C6.62177 28.8019 8.8154 30.1223 11.2543 30.6132C9.67012 31.0466 8.00746 31.1098 6.39497 30.7978C7.08318 32.9373 8.42219 34.8086 10.2251 36.1505C12.0281 37.4924 14.205 38.238 16.452 38.2831C12.6372 41.2797 7.92476 42.9051 3.07373 42.8974C2.21344 42.8961 1.354 42.8433 0.5 42.7395C5.42812 45.9011 11.1608 47.5803 17.016 47.5773Z" fill="white"/>
</g>
<defs>
<clipPath id="clip0_34_2092">
<rect width="52.5" height="52.5" fill="white" transform="translate(0.5)"/>
</clipPath>
</defs>
</svg>
