<svg width="21" height="20" viewBox="0 0 21 20" fill="none" xmlns="http://www.w3.org/2000/svg">
<path fill-rule="evenodd" clip-rule="evenodd" d="M19.4942 3.45306C19.7403 4.086 19.9121 4.81644 19.959 5.87891C20.0058 6.94534 20.0098 7.28516 20.0098 10C20.0098 12.7148 19.998 13.0547 19.9512 14.1211C19.9044 15.1836 19.7324 15.9102 19.4864 16.5469C18.9669 17.8906 17.9044 18.9531 16.5605 19.4727C15.9278 19.7188 15.1973 19.8906 14.1349 19.9374C13.0684 19.9844 12.7286 19.996 10.0138 19.996C7.29892 19.996 6.95895 19.9844 5.89267 19.9374C4.83005 19.8906 4.10358 19.7188 3.46683 19.4727C2.80276 19.2227 2.1973 18.8281 1.69727 18.3203C1.18945 17.8203 0.795013 17.2188 0.541107 16.5469C0.294983 15.914 0.123016 15.1836 0.0761719 14.1211C0.0293274 13.0547 0.0175781 12.7148 0.0175781 10C0.0175781 7.28516 0.0293274 6.94534 0.0801391 5.87494C0.126984 4.81247 0.298798 4.086 0.544922 3.44925C0.795013 2.78519 1.18945 2.17972 1.69727 1.67969C2.1973 1.16791 2.7988 0.777283 3.47079 0.523376C4.10358 0.277405 4.83401 0.105438 5.89648 0.0585938C6.96292 0.0117493 7.30273 0 10.0176 0C12.7324 0 13.0722 0.0117493 14.1426 0.062561C15.2051 0.109406 15.9317 0.281219 16.5683 0.527344C17.2324 0.777283 17.8379 1.17188 18.3379 1.67969C18.8497 2.17972 19.2403 2.78122 19.4942 3.45306ZM10.0174 4.86309C7.18154 4.86309 4.88067 7.16381 4.88067 9.99981C4.88067 12.8358 7.18154 15.1365 10.0174 15.1365C12.8534 15.1365 15.1541 12.8358 15.1541 9.99981C15.1541 7.16381 12.8534 4.86309 10.0174 4.86309ZM10.0174 13.3319C8.17764 13.3319 6.68533 11.8397 6.68533 9.99981C6.68533 8.15991 8.17764 6.66775 10.0174 6.66775C11.8573 6.66775 13.3495 8.15991 13.3495 9.99981C13.3495 11.8397 11.8573 13.3319 10.0174 13.3319ZM16.5565 4.66C16.5565 5.32223 16.0196 5.85919 15.3572 5.85919C14.695 5.85919 14.158 5.32223 14.158 4.66C14.158 3.99761 14.695 3.46081 15.3572 3.46081C16.0196 3.46081 16.5565 3.99761 16.5565 4.66ZM17.8145 15.8984C17.9512 15.5469 18.1153 15.0195 18.1583 14.043C18.2051 12.9883 18.2169 12.6758 18.2169 10.0078C18.2169 7.33978 18.2051 7.02347 18.1583 5.96878C18.1153 4.99603 17.9512 4.46487 17.8145 4.11331C17.6543 3.67966 17.4004 3.28903 17.0684 2.96478C16.7481 2.63275 16.3535 2.37885 15.92 2.21878C15.5684 2.08206 15.0411 1.91803 14.0645 1.875C13.0136 1.82816 12.6973 1.81641 10.0254 1.81641C7.35751 1.81641 7.04105 1.82816 5.98636 1.875C5.01376 1.91803 4.48245 2.08206 4.13089 2.21878C3.69724 2.37885 3.30661 2.63275 2.98251 2.96478C2.64651 3.28522 2.39261 3.67966 2.23239 4.11331C2.09567 4.46487 1.93164 4.99222 1.88876 5.96878C1.84177 7.0195 1.83017 7.33978 1.83017 10.0078C1.83017 12.6758 1.84177 12.9922 1.88876 14.0469C1.93164 15.0195 2.09567 15.5508 2.23239 15.9024C2.39261 16.3359 2.64651 16.7265 2.97855 17.0508C3.29883 17.3828 3.69342 17.6367 4.12692 17.7969C4.47849 17.9337 5.00583 18.0977 5.98239 18.1406C7.03326 18.1876 7.35355 18.1992 10.0215 18.1992C12.6895 18.1992 13.0059 18.1876 14.0605 18.1406C15.0333 18.0977 15.5645 17.9337 15.916 17.7969C16.7871 17.4609 17.4785 16.7696 17.8145 15.8984Z" fill="#FD620C"/>
</svg>
