<svg width="38" height="38" viewBox="0 0 38 38" fill="none" xmlns="http://www.w3.org/2000/svg">
<path d="M19.5931 4.05713C11.6811 4.05713 5.24414 10.4941 5.24414 18.4061V24.3509C5.24414 25.8202 6.53124 27.0155 8.11393 27.0155H9.54883C9.92939 27.0155 10.2944 26.8643 10.5635 26.5952C10.8325 26.3261 10.9837 25.9611 10.9837 25.5806V18.2009C10.9837 17.8203 10.8325 17.4554 10.5635 17.1863C10.2944 16.9172 9.92939 16.766 9.54883 16.766H8.24594C9.04375 11.213 13.8219 6.92692 19.5931 6.92692C25.3643 6.92692 30.1425 11.213 30.9403 16.766H29.6374C29.2568 16.766 28.8918 16.9172 28.6227 17.1863C28.3537 17.4554 28.2025 17.8203 28.2025 18.2009V27.0155C28.2025 28.5982 26.9154 29.8853 25.3327 29.8853H22.4629V28.4504H16.7233V32.755H25.3327C28.4981 32.755 31.0723 30.1808 31.0723 27.0155C32.655 27.0155 33.9421 25.8202 33.9421 24.3509V18.4061C33.9421 10.4941 27.5051 4.05713 19.5931 4.05713Z" fill="#2A9D8F"/>
</svg>
