<svg width="1440" height="887" viewBox="0 0 1440 887" fill="none" xmlns="http://www.w3.org/2000/svg">
<path opacity="0.2" d="M271.835 882.231C169.465 861.399 56.6323 806.044 0 800.417V155H1442V840.25C1351.95 743.632 1204.85 805.612 1142.56 845.869C1021.08 926.903 789.667 864.916 689.144 823.792C592.303 790.548 516.216 833.497 487.392 852.362C428.777 893.918 307.927 889.575 271.835 882.231Z" fill="#FE9151"/>
<path d="M271.458 844.185C169.23 823.155 56.5538 767.27 0 761.589V0H1440V807.476C1350.08 709.934 1203.18 766.833 1140.97 807.476C1019.66 889.285 788.571 826.704 688.188 785.188C591.482 751.625 515.5 794.986 486.716 814.031C428.183 855.984 307.5 851.6 271.458 844.185Z" fill="#333333"/>
</svg>
