<svg width="88" height="88" viewBox="0 0 88 88" fill="none" xmlns="http://www.w3.org/2000/svg">
<ellipse cx="43.9822" cy="43.7906" rx="43.9822" ry="43.7906" fill="#F18930" fill-opacity="0.1"/>
<path d="M23.6863 23.4375H24.4363V24.1875C24.4363 24.3947 24.5186 24.5934 24.6651 24.7399C24.8116 24.8864 25.0103 24.9687 25.2175 24.9687C25.4247 24.9687 25.6235 24.8864 25.77 24.7399C25.9165 24.5934 25.9988 24.3947 25.9988 24.1875V23.4375H26.8113C27.0185 23.4375 27.2172 23.3552 27.3637 23.2087C27.5102 23.0622 27.5925 22.8635 27.5925 22.6562C27.5925 22.449 27.5102 22.2503 27.3637 22.1038C27.2172 21.9573 27.0185 21.875 26.8113 21.875H26.0613V21.125C26.0613 20.9178 25.979 20.7191 25.8325 20.5726C25.686 20.4261 25.4872 20.3438 25.28 20.3438C25.0728 20.3438 24.8741 20.4261 24.7276 20.5726C24.5811 20.7191 24.4988 20.9178 24.4988 21.125V21.875H23.6863C23.4791 21.875 23.2804 21.9573 23.1339 22.1038C22.9874 22.2503 22.905 22.449 22.905 22.6562C22.905 22.8635 22.9874 23.0622 23.1339 23.2087C23.2804 23.3552 23.4791 23.4375 23.6863 23.4375ZM63.8113 64.5625H63.0613V63.8125C63.0613 63.6053 62.979 63.4066 62.8325 63.2601C62.686 63.1136 62.4872 63.0312 62.28 63.0312C62.0728 63.0312 61.8741 63.1136 61.7276 63.2601C61.5811 63.4066 61.4988 63.6053 61.4988 63.8125V64.5625H60.7488C60.5416 64.5625 60.3429 64.6448 60.1964 64.7913C60.0499 64.9378 59.9675 65.1365 59.9675 65.3437C59.9675 65.5509 60.0499 65.7497 60.1964 65.8962C60.3429 66.0427 60.5416 66.125 60.7488 66.125H61.4988V66.875C61.4988 67.0822 61.5811 67.2809 61.7276 67.4274C61.8741 67.5739 62.0728 67.6562 62.28 67.6562C62.4872 67.6562 62.686 67.5739 62.8325 67.4274C62.979 67.2809 63.0613 67.0822 63.0613 66.875V66.125H63.8113C64.0185 66.125 64.2172 66.0427 64.3637 65.8962C64.5102 65.7497 64.5925 65.5509 64.5925 65.3437C64.5925 65.1365 64.5102 64.9378 64.3637 64.7913C64.2172 64.6448 64.0185 64.5625 63.8113 64.5625ZM64.9988 55.5312H64.7175C65.2579 54.845 65.5547 53.9985 65.5613 53.125V30.5937C65.5613 29.5412 65.1432 28.5317 64.3989 27.7874C63.6546 27.0431 62.6451 26.625 61.5925 26.625H26.4207C25.3681 26.625 24.3586 27.0431 23.6143 27.7874C22.8701 28.5317 22.4519 29.5412 22.4519 30.5937V53.1094C22.4585 53.9828 22.7553 54.8293 23.2957 55.5156H22.9988C22.2588 55.5697 21.5666 55.9018 21.0614 56.4453C20.5562 56.9888 20.2754 57.7033 20.2754 58.4453C20.2754 59.1873 20.5562 59.9018 21.0614 60.4453C21.5666 60.9888 22.2588 61.3209 22.9988 61.375H64.9988C65.7388 61.3209 66.431 60.9888 66.9362 60.4453C67.4414 59.9018 67.7222 59.1873 67.7222 58.4453C67.7222 57.7033 67.4414 56.9888 66.9362 56.4453C66.431 55.9018 65.7388 55.5697 64.9988 55.5156V55.5312ZM24.0144 53.1094V30.5937C24.0144 29.9556 24.2679 29.3435 24.7192 28.8923C25.1705 28.441 25.7825 28.1875 26.4207 28.1875H61.5769C62.2151 28.1875 62.8271 28.441 63.2784 28.8923C63.7297 29.3435 63.9832 29.9556 63.9832 30.5937V53.1094C63.9832 53.7475 63.7297 54.3596 63.2784 54.8108C62.8271 55.2621 62.2151 55.5156 61.5769 55.5156H26.4207C25.7825 55.5156 25.1705 55.2621 24.7192 54.8108C24.2679 54.3596 24.0144 53.7475 24.0144 53.1094ZM64.9988 59.8125H22.9988C22.8189 59.8085 22.6416 59.7688 22.4772 59.6957C22.3128 59.6226 22.1645 59.5177 22.0409 59.3868C21.9174 59.256 21.8211 59.102 21.7575 58.9337C21.6939 58.7653 21.6644 58.5861 21.6707 58.4062C21.6747 58.0553 21.816 57.7198 22.0642 57.4716C22.3124 57.2234 22.6478 57.0822 22.9988 57.0781H64.9988C65.1787 57.0821 65.356 57.1218 65.5204 57.1949C65.6848 57.268 65.8331 57.373 65.9566 57.5038C66.0802 57.6346 66.1765 57.7886 66.2401 57.957C66.3037 58.1253 66.3332 58.3046 66.3269 58.4844C66.3269 58.8381 66.1875 59.1775 65.9389 59.4291C65.6903 59.6806 65.3525 59.824 64.9988 59.8281V59.8125Z" fill="#F18930"/>
<path d="M44 34.625C42.4548 34.625 40.9444 35.0832 39.6596 35.9416C38.3749 36.8001 37.3735 38.0202 36.7822 39.4478C36.1909 40.8753 36.0362 42.4462 36.3376 43.9616C36.6391 45.4771 37.3831 46.8692 38.4757 47.9618C39.5683 49.0544 40.9604 49.7984 42.4759 50.0999C43.9913 50.4013 45.5622 50.2466 46.9897 49.6553C48.4173 49.064 49.6374 48.0627 50.4959 46.7779C51.3543 45.4931 51.8125 43.9827 51.8125 42.4375C51.8125 40.3655 50.9894 38.3784 49.5243 36.9132C48.0591 35.4481 46.072 34.625 44 34.625ZM50.0938 41.5781H48.3594C48.3019 40.038 47.924 38.5267 47.25 37.1406C48.0324 37.6317 48.6943 38.2926 49.1866 39.0743C49.6789 39.856 49.9889 40.7384 50.0938 41.6562V41.5781ZM43.2188 36.4844V41.6562H41.1875C41.1603 40.7135 41.3265 39.7752 41.6759 38.8991C42.0252 38.0231 42.5503 37.2279 43.2188 36.5625V36.4844ZM43.2188 43.1406V48.2344C42.5503 47.569 42.0252 46.7738 41.6759 45.8978C41.3265 45.0217 41.1603 44.0834 41.1875 43.1406H43.2188ZM44.7813 48.2344V43.2188H46.8125C46.8397 44.1615 46.6735 45.0998 46.3241 45.9759C45.9748 46.8519 45.4497 47.6471 44.7813 48.3125V48.2344ZM44.7813 41.5781V36.5625C45.4497 37.2279 45.9748 38.0231 46.3241 38.8991C46.6735 39.7752 46.8397 40.7135 46.8125 41.6562L44.7813 41.5781ZM40.7344 37.1406C40.0604 38.5267 39.6825 40.038 39.625 41.5781H37.9063C38.0313 40.6892 38.3493 39.8385 38.8378 39.0854C39.3264 38.3324 39.9737 37.6953 40.7344 37.2187V37.1406ZM37.9063 43.2188H39.6406C39.6982 44.7589 40.076 46.2702 40.75 47.6562C39.9771 47.1732 39.321 46.5246 38.8292 45.7572C38.3375 44.9898 38.0222 44.1228 37.9063 43.2188ZM47.2813 47.6562C47.9553 46.2702 48.3331 44.7589 48.3906 43.2188H50.0938C49.9796 44.1214 49.6667 44.9876 49.1777 45.7549C48.6887 46.5222 48.0357 47.1716 47.2656 47.6562H47.2813Z" fill="#F18930"/>
</svg>
